<svg height="1000" width="928" xmlns="http://www.w3.org/2000/svg"><path d="M911 946.5l-893 0l0 -781l112 0l0 669l669 0l0 -669l112 0l0 781zm-725 -447l0 -111l112 0l0 111l-112 0zm223 0l0 -111l112 0l0 111l-112 0zm223 0l0 -111l112 0l0 111l-112 0zm-446 224l0 -112l112 0l0 112l-112 0zm223 0l0 -112l112 0l0 112l-112 0zm223 0l0 -112l112 0zm-391 -503l0 -112q0 -23 16.5 -39t40.5 -16 39.5 15.5 15.5 39.5l0 112q0 24 -16.5 40t-38.5 16q-24 0 -40.5 -16.5t-16.5 -39.5zm335 0l0 -112q0 -23 16 -39t40 -16q23 0 39.5 15.5t16.5 39.5l0 112q0 24 -16.5 40t-39 16 -39.5 -16.5 -17 -39.5z"/></svg>