<svg height="1000" width="928" xmlns="http://www.w3.org/2000/svg"><path d="M353 498q0 -112 111.5 -112t111.5 112 -111.5 112 -111.5 -112zm372 -316q0 23 16 39.5t39 16.5q18 0 35 -14 96 124 96 274 0 128 -62.5 229t-159.5 157q-103 60 -225 60 -128 0 -229 -62t-157 -160q-60 -103 -60 -224 0 -149 95 -272 15 12 32 12 24 0 40.5 -16.5t16.5 -39.5q0 -18 -12 -33 96 -77 219 -93 3 22 18.5 36.5t37 14.5 37 -14.5 18.5 -36.5q121 15 218 90 -13 15 -13 36zm-484 316q0 91 65.5 157t158 66 158 -66 65.5 -157q0 -92 -66 -158l-158 -158 -157 158q-66 66 -66 158z"/></svg>