<svg height="1000" width="928" xmlns="http://www.w3.org/2000/svg"><path d="M688 165.5q92 0 157.5 65t65.5 157.5 -65.5 158 -157.5 65.5l-167 0l0 167l111 0l-168 168 -166 -168l111 0l0 -167l-168 0q-92 0 -157.5 -65.5t-65.5 -158 65.5 -157.5 157.5 -65q11 0 30 2 29 -52 80.5 -83t112.5 -31q60 0 112.5 31t81.5 83q19 -2 30 -2zm0 334q45 0 78 -33t33 -78.5 -33 -78.5 -78.5 -33 -78.5 33 -33 79l-112 0q0 -109 90 -178 -33 -45 -90 -45 -45 0 -78 33t-33 78q0 21 7 39l-104 39q-15 -36 -15 -77 -44 2 -77.5 34t-33.5 77 33 78 78 33l447 0z"/></svg>