<svg height="1000" width="928" xmlns="http://www.w3.org/2000/svg"><path d="M576 611.5l0 112l-55 0l0 166q0 23 -17 40t-39.5 17 -39 -16.5 -16.5 -40.5l0 -166l-56 0l0 -112l56 0l0 -503q0 -24 16.5 -39.5t38.5 -15.5q24 0 40.5 16t16.5 39l0 503l55 0zm335 -335l0 112l-55 0l0 501q0 23 -16.5 40t-40.5 17q-23 0 -39 -16.5t-16 -40.5l0 -501l-56 0l0 -112l56 0l0 -168q0 -24 15.5 -39.5t39.5 -15.5 40.5 16 16.5 39l0 168l55 0zm-670 112l0 111l-55 0l0 390q0 23 -16 40t-40 17q-23 0 -39.5 -16.5t-16.5 -40.5l0 -390l-56 0l0 -111l56 0l0 -280q0 -24 16 -39.5t40 -15.5 40 16 16 39l0 280l55 0z"/></svg>