<svg height="1000" width="928" xmlns="http://www.w3.org/2000/svg"><path d="M632.5 165.5q-69.5 0 -119 48.5t-49.5 117.5q0 14 4 32l11 57q-58 58 -175 174.5t-174 173.5l0 66l111 0l0 -111l112 0l0 -112l111 0l0 -47l80 -79 57 11q18 3 31 3 70 0 118.5 -49t48.5 -118.5 -48.5 -118 -118 -48.5zm0 -112q115.5 0 197 81.5t81.5 197 -81.5 197.5 -197.5 82q-28 0 -51 -5l-5 5l0 112l-112 0l0 111l-111 0l0 112l-335 0l0 -223l340 -340q-5 -23 -5 -52 0 -115 82 -196.5t197.5 -81.5zm-56.5 278q0 -55 56 -55t56 55q0 57 -56 57t-56 -57z"/></svg>