<svg height="1000" width="928" xmlns="http://www.w3.org/2000/svg"><path d="M911 276.5q0 61 -31.5 113t-83.5 82q2 19 2 27 0 138 -98 236.5t-237 98.5q-103 0 -186 -56l-259 169 170 -258q-60 -88 -60 -190 0 -138 98 -236.5t237 -98.5q6 0 18 2t13 2q30 -52 81 -83t113 -31q92 0 157.5 65.5t65.5 157.5zm-447.5 445q92.5 0 157.5 -65t65 -157q-26 0 -57 -8l-88 88q-32 32 -78.5 32t-78.5 -32.5 -32 -79 32 -79.5l89 -89q-9 -31 -9 -55l0 -1l-1 0q-92 0 -157.5 65.5t-65.5 158 65.5 157.5 158 65zm224 -333q45.5 0 78.5 -33t33 -78.5 -33 -78.5 -78.5 -33 -78.5 33 -33 78.5 33 78.5 78.5 33z"/></svg>