<svg height="1000" width="928" xmlns="http://www.w3.org/2000/svg"><path d="M688 221.5q92 0 157.5 65.5t65.5 157.5 -65.5 157.5 -157.5 65.5l-447 0q-92 0 -157.5 -65.5t-65.5 -157.5 65.5 -157.5 157.5 -65.5q1 0 30 3 30 -52 81 -83.5t112 -31.5q60 0 112.5 32t81.5 83q28 -3 30 -3zm0 335q45 0 78 -33t33 -79 -33 -79 -78.5 -33 -78.5 33 -33 79l-112 0q0 -109 90 -178 -33 -45 -90 -45 -45 0 -78 33t-33 78q0 22 7 40l-104 38q-15 -36 -15 -75 -44 1 -77.5 33t-33.5 76q0 46 33 79t78 33l447 0zm-579 319q-15 15 -37.5 15t-38 -15.5 -15.5 -37.5 16 -38q9 -9 47 -28t71 -33l34 -14q-56 130 -77 151zm223 0q-15 15 -36.5 15t-38.5 -15q-16 -16 -16 -38t16 -38q9 -9 47.5 -28t72.5 -33l32 -14q-55 130 -77 151zm224 0q-16 15 -38 15t-38 -15.5 -16 -37.5 16 -38q10 -9 47.5 -28t71.5 -33l33 -14q-56 130 -76 151z"/></svg>