<svg height="1000" width="928" xmlns="http://www.w3.org/2000/svg"><path d="M464.5 388.5q-45.5 0 -78.5 33t-33 78.5 33 78.5 78.5 33 78.5 -33 33 -78.5 -33 -78.5 -78.5 -33zm0 -112q92.5 0 158 65.5t65.5 158 -65.5 158 -158 65.5 -158 -65.5 -65.5 -158 65.5 -158 158 -65.5zm-55.5 -168q0 -55 55 -55 57 0 57 55 0 57 -57 57 -55 0 -55 -57zm-279 112q0 -55 56 -55 55 0 55 55 0 56 -55 56 -56 0 -56 -56zm-56 223q23 0 39.5 16t16.5 40 -16 40 -40 16 -40 -16.5 -16 -39.5q0 -24 16 -40t40 -16zm56 335q0 -55 56 -55 55 0 55 55 0 56 -55 56 -56 0 -56 -56zm279 111q0 -22 16.5 -38.5t38.5 -16.5q24 0 40.5 16.5t16.5 39 -17 39.5 -39.5 17 -39 -16.5 -16.5 -40.5zm295.5 -71.5q-15.5 -15.5 -15.5 -38.5t15.5 -39.5 39.5 -16.5 39.5 16.5 15.5 39.5 -15.5 38.5 -39.5 15.5 -39.5 -15.5zm151.5 -262.5q-24 0 -40.5 -16.5t-16.5 -39.5q0 -24 17 -40t39.5 -16 39 16 16.5 40 -16.5 40 -38.5 16zm-72.5 -295.5q-15.5 16.5 -39.5 16.5t-39.5 -16.5 -15.5 -39.5 15.5 -40 39.5 -17 39.5 17 15.5 40 -15.5 39.5z"/></svg>