<svg height="1000" width="928" xmlns="http://www.w3.org/2000/svg"><path d="M911 165.5l0 111l-112 0l0 502q0 69 -48.5 118.5t-118.5 49.5l-334 0q-70 0 -119 -49.5t-49 -118.5l0 -502l-112 0l0 -111l223 0q0 -46 33 -79t79 -33l223 0q46 0 79 33t33 79l223 0zm-223 613l0 -502l-447 0l0 502q0 24 16.5 40t40.5 16l334 0q23 0 39.5 -16t16.5 -40zm-390 -112q0 -55 55 -55 56 0 56 55 0 57 -56 57 -55 0 -55 -57zm0 -223q0 -55 55 -55 56 0 56 55 0 56 -56 56 -55 0 -55 -56zm223 223q0 -55 55 -55 56 0 56 55 0 57 -56 57 -55 0 -55 -57zm0 -223q0 -55 55 -55 56 0 56 55 0 56 -56 56 -55 0 -55 -56z"/></svg>