<svg height="1000" width="928" xmlns="http://www.w3.org/2000/svg"><path d="M688 165.5l223 0l0 111l-112 0l0 502q0 69 -48.5 118.5t-118.5 49.5l-334 0q-70 0 -119 -49.5t-49 -118.5l0 -502l-112 0l0 -111l223 0q0 -46 33 -79t79 -33l223 0q46 0 79 33t33 79zm-335 558q24 0 40 -17t16 -40 -16 -39 -40 -16 -39.5 16 -15.5 39q0 24 16 40.5t39 16.5zm0 -224q24 0 40 -16.5t16 -39.5 -16 -39 -40 -16 -39.5 16 -15.5 39q0 24 16 40t39 16zm223 224q24 0 40 -17t16 -40 -16 -39 -40 -16 -39.5 16 -15.5 39q0 24 16 40.5t39 16.5zm0 -224q24 0 40 -16.5t16 -39.5 -16 -39 -40 -16 -39.5 16 -15.5 39q0 24 16 40t39 16z"/></svg>